<?xml version="1.0" encoding="utf-8"?>
<!-- Generator: Adobe Illustrator 23.0.5, SVG Export Plug-In . SVG Version: 6.00 Build 0)  -->
<svg version="1.1" xmlns="http://www.w3.org/2000/svg" xmlns:xlink="http://www.w3.org/1999/xlink" x="0px" y="0px"
	 viewBox="0 0 500 500" style="enable-background:new 0 0 500 500;" xml:space="preserve">
<g id="Background_Complete">
	<g>
		<rect x="416.78" y="398.49" style="fill:#EBEBEB;" width="33.12" height="0.25"/>
		<rect x="322.53" y="401.21" style="fill:#EBEBEB;" width="8.69" height="0.25"/>
		<rect x="396.59" y="389.21" style="fill:#EBEBEB;" width="19.19" height="0.25"/>
		<rect x="52.46" y="390.89" style="fill:#EBEBEB;" width="43.19" height="0.25"/>
		<rect x="104.56" y="390.89" style="fill:#EBEBEB;" width="6.33" height="0.25"/>
		<rect x="131.47" y="395.11" style="fill:#EBEBEB;" width="93.68" height="0.25"/>
		<path style="fill:#EBEBEB;" d="M237.01,337.8H43.92c-3.15,0-5.71-2.56-5.71-5.71V60.66c0-3.15,2.56-5.71,5.71-5.71h193.1
			c3.15,0,5.71,2.56,5.71,5.71v271.43C242.72,335.24,240.16,337.8,237.01,337.8z M43.92,55.2c-3.01,0-5.46,2.45-5.46,5.46v271.43
			c0,3.01,2.45,5.46,5.46,5.46h193.1c3.01,0,5.46-2.45,5.46-5.46V60.66c0-3.01-2.45-5.46-5.46-5.46H43.92z"/>
		<path style="fill:#EBEBEB;" d="M453.31,337.8h-193.1c-3.15,0-5.71-2.56-5.71-5.71V60.66c0-3.15,2.56-5.71,5.71-5.71h193.1
			c3.15,0,5.71,2.56,5.71,5.71v271.43C459.02,335.24,456.46,337.8,453.31,337.8z M260.21,55.2c-3.01,0-5.46,2.45-5.46,5.46v271.43
			c0,3.01,2.45,5.46,5.46,5.46h193.1c3.01,0,5.46-2.45,5.46-5.46V60.66c0-3.01-2.45-5.46-5.46-5.46H260.21z"/>
		<rect y="382.4" style="fill:#EBEBEB;" width="500" height="0.25"/>
	</g>
	<g>
		<g>
			
				<rect x="264.11" y="69.95" transform="matrix(-1 -1.224647e-16 1.224647e-16 -1 557.2096 178.8133)" style="fill:#F0F0F0;" width="28.99" height="38.91"/>
			
				<rect x="261.71" y="70.75" transform="matrix(-1 -1.224647e-16 1.224647e-16 -1 552.4096 180.4133)" style="fill:#F5F5F5;" width="28.99" height="38.91"/>
			<rect x="288.92" y="73.19" style="fill:#E0E0E0;" width="9.19" height="43.43"/>
			<polygon style="fill:#EBEBEB;" points="281.55,73.19 260.69,102.66 260.69,116.62 288.92,116.62 288.92,73.19 			"/>
			<path style="fill:#FAFAFA;" d="M296.34,109.66c0,1.56-1.26,2.82-2.82,2.82s-2.82-1.26-2.82-2.82c0-1.56,1.26-2.82,2.82-2.82
				S296.34,108.1,296.34,109.66z"/>
			<rect x="290.7" y="83.38" style="fill:#F0F0F0;" width="5.64" height="18.34"/>
			<rect x="290.7" y="83.38" style="opacity:0.6;fill:#FAFAFA;" width="5.64" height="2.59"/>
		</g>
		<g>
			<g>
				<path style="fill:#EBEBEB;" d="M252.89,105.87V98.8c0.87,0,0.87-1.35,0-1.35c-2.7,0-5.39-0.02-8.09-0.03v9.82
					c2.7,0,5.39,0,8.09,0C253.77,107.23,253.77,105.87,252.89,105.87z"/>
				<rect x="246.61" y="98.8" style="fill:#F5F5F5;" width="6.28" height="7.06"/>
				<path style="fill:#FAFAFA;" d="M247.93,106.55h-21.79c-1.5,0-2.71-1.89-2.71-4.21c0-2.33,1.21-4.21,2.71-4.21h21.79V106.55z"/>
				<g>
					<path style="fill:#E6E6E6;" d="M247.93,97.44c-7.13,0-14.28-0.13-21.41,0c-4.89,0.09-5.15,9.45-0.36,9.78
						c3.34,0.23,6.78,0,10.12,0c3.88,0,7.76,0,11.64,0c0.87,0,0.87-1.35,0-1.35c-6.76,0-13.52,0-20.28,0
						c-1.56,0-2.68-0.02-3.29-1.86c-0.52-1.6-0.36-4.86,1.78-5.21c0.23-0.04,0.5,0,0.73,0c3.69,0,7.37,0,11.06,0
						c3.33,0,6.66,0,9.99,0C248.8,98.8,248.8,97.44,247.93,97.44L247.93,97.44z"/>
				</g>
			</g>
			<g>
				<path style="fill:#EBEBEB;" d="M252.97,96.32v-6.29c0.77,0,0.78-1.2,0-1.2c-2.4,0-4.79-0.02-7.19-0.03v8.72c2.4,0,4.79,0,7.19,0
					C253.74,97.52,253.74,96.32,252.97,96.32z"/>
				<rect x="247.38" y="90.04" style="fill:#F5F5F5;" width="5.58" height="6.28"/>
				<path style="fill:#FAFAFA;" d="M248.55,96.92h-19.36c-1.33,0-2.41-1.68-2.41-3.74c0-2.07,1.08-3.74,2.41-3.74h19.36V96.92z"/>
				<g>
					<path style="fill:#E6E6E6;" d="M248.55,88.83c-6.34,0-12.69-0.11-19.03,0c-4.34,0.08-4.57,8.4-0.32,8.69c2.97,0.2,6.02,0,9,0
						c3.45,0,6.9,0,10.35,0c0.77,0,0.78-1.2,0-1.2c-6.01,0-12.02,0-18.02,0c-1.39,0-2.38-0.02-2.92-1.66
						c-0.47-1.42-0.32-4.32,1.58-4.63c0.21-0.03,0.45,0,0.65,0c3.28,0,6.55,0,9.83,0c2.96,0,5.92,0,8.88,0
						C249.33,90.04,249.33,88.83,248.55,88.83L248.55,88.83z"/>
				</g>
			</g>
			<g>
				<path style="fill:#EBEBEB;" d="M252.89,115.48v-7.07c0.87,0,0.87-1.35,0-1.35c-2.7,0-5.39-0.02-8.09-0.03v9.82
					c2.7,0,5.39,0,8.09,0C253.77,116.84,253.77,115.48,252.89,115.48z"/>
				<rect x="246.61" y="108.41" style="fill:#F5F5F5;" width="6.28" height="7.06"/>
				<path style="fill:#FAFAFA;" d="M247.93,116.16h-21.79c-1.5,0-2.71-1.89-2.71-4.21c0-2.33,1.21-4.21,2.71-4.21h21.79V116.16z"/>
				<g>
					<path style="fill:#E6E6E6;" d="M247.93,107.06c-7.13,0-14.28-0.13-21.41,0c-4.89,0.09-5.15,9.45-0.36,9.78
						c3.34,0.23,6.78,0,10.12,0c3.88,0,7.76,0,11.64,0c0.87,0,0.87-1.35,0-1.35c-6.76,0-13.52,0-20.28,0
						c-1.56,0-2.68-0.02-3.29-1.86c-0.52-1.6-0.36-4.86,1.78-5.21c0.23-0.04,0.5,0,0.73,0c3.69,0,7.37,0,11.06,0
						c3.33,0,6.66,0,9.99,0C248.8,108.41,248.8,107.06,247.93,107.06L247.93,107.06z"/>
				</g>
			</g>
		</g>
		<g>
			<rect x="128.26" y="116.27" style="fill:#F5F5F5;" width="243.48" height="7.05"/>
			<g>
				<polygon style="fill:#E0E0E0;" points="358.62,140.44 358.62,123.31 367.18,123.31 				"/>
				<polygon style="fill:#F5F5F5;" points="362.9,140.44 371.47,123.31 367.18,123.31 358.62,140.44 				"/>
			</g>
			<g>
				<polygon style="fill:#E0E0E0;" points="141.11,140.44 141.11,123.31 132.54,123.31 				"/>
				<polygon style="fill:#F5F5F5;" points="136.82,140.44 128.26,123.31 132.54,123.31 141.11,140.44 				"/>
			</g>
		</g>
		<g>
			<path style="fill:#F0F0F0;" d="M344.56,97.73v-0.65c0-10.29-8.34-18.63-18.63-18.63c-10.29,0-18.63,8.34-18.63,18.63v0.65v18.63
				h18.63h18.63V97.73z"/>
			<path style="fill:#FAFAFA;" d="M311.37,97.09c0,8.04,6.52,14.56,14.56,14.56c8.04,0,14.56-6.52,14.56-14.56
				s-6.52-14.56-14.56-14.56C317.89,82.53,311.37,89.05,311.37,97.09z"/>
			<path style="fill:#E6E6E6;" d="M325.92,84.83c-7.65,0-13.91,5.91-14.5,13.41c-0.03-0.38-0.06-0.76-0.06-1.15
				c0-8.04,6.52-14.56,14.56-14.56c8.04,0,14.56,6.52,14.56,14.56c0,0.39-0.03,0.77-0.06,1.15
				C339.84,90.73,333.58,84.83,325.92,84.83z"/>
			<path style="fill:#E0E0E0;" d="M316.73,97.08c0.44,0,5.14,0,7.65,0c0-2.52,0-7.23,0-7.65c0-0.85,0.69-1.54,1.54-1.54
				c0.85,0,1.54,0.69,1.54,1.54c0,0.58,0,8.62,0,9.19c0,0.85-0.69,1.54-1.54,1.54l0,0l0,0c-0.56,0-8.63,0-9.19,0
				c-0.85,0-1.54-0.69-1.54-1.54S315.88,97.08,316.73,97.08z"/>
			<path style="fill:#F5F5F5;" d="M316.73,98.63c-0.85,0-1.54-0.69-1.54-1.54c0-0.85,0.69-1.54,1.54-1.54c0.58,0,8.62,0,9.19,0
				c0.85,0,1.54,0.69,1.54,1.54c0,0.85-0.69,1.54-1.54,1.54C325.36,98.63,317.29,98.63,316.73,98.63z"/>
			<path style="fill:#EBEBEB;" d="M324.38,87.89c0-0.85,0.69-1.54,1.54-1.54c0.85,0,1.54,0.69,1.54,1.54c0,0.58,0,8.62,0,9.19
				c0,0.85-0.69,1.54-1.54,1.54c-0.85,0-1.54-0.69-1.54-1.54C324.38,96.52,324.38,88.46,324.38,87.89z"/>
		</g>
		<g>
			<g>
				<g>
					<polygon style="fill:#EBEBEB;" points="210.96,116.43 183.51,116.43 186.55,81.61 214.01,81.61 					"/>
					<polygon style="fill:#E0E0E0;" points="210.96,116.43 212.27,116.43 215.32,81.61 214.01,81.61 					"/>
					<polygon style="fill:#E0E0E0;" points="208.47,112.88 186.62,112.88 189.04,85.16 210.9,85.16 					"/>
					<polygon style="fill:#FAFAFA;" points="206.87,110.6 188.61,110.6 190.64,87.44 208.9,87.44 					"/>
				</g>
				<path style="fill:#E6E6E6;" d="M198.48,103.8c3.47,0,6.29-2.81,6.29-6.29s-2.81-6.29-6.29-6.29
					C195.01,91.22,195.01,103.8,198.48,103.8z"/>
			</g>
			<g>
				<polygon style="fill:#F0F0F0;" points="187.15,116.43 189.03,94.88 161.7,94.88 159.81,116.43 				"/>
				<polygon style="fill:#E0E0E0;" points="187.15,116.43 189.03,94.88 190.51,94.88 188.62,116.43 				"/>
				<polygon style="fill:#FAFAFA;" points="184.55,114.24 186.05,97.08 164.29,97.08 162.79,114.24 				"/>
				<polygon style="fill:#EBEBEB;" points="182.89,112.82 184.14,98.49 165.96,98.49 164.71,112.82 				"/>
				<path style="fill:#F5F5F5;" d="M174.45,108.86c2.24,0,4.06-1.82,4.06-4.06c0-2.24-1.82-4.06-4.06-4.06
					C172.2,100.74,172.2,108.86,174.45,108.86z"/>
			</g>
		</g>
	</g>
	<g>
		<path style="fill:#F5F5F5;" d="M78.48,340.3c-0.08-0.07-0.13-0.17-0.13-0.28c-0.09-1.96-1.27-21.23-13.07-34.42
			c-9.98-11.16,0.26-3.2,4.7,0.39c0.36,0.29,0.85-0.13,0.61-0.53c-3.13-5.29-10.99-19.29-8.26-22.01c2.58-2.58,7.89,10.2,10.27,16.4
			c0.17,0.45,0.84,0.29,0.79-0.19c-0.68-6.56-1.68-20.28,2.01-19.8c3.66,0.48,2.64,18.6,1.91,27.47c-0.04,0.49,0.66,0.62,0.8,0.15
			c1.65-5.46,4.79-13.52,8.48-11.39c5.46,3.16-8.04,14.27-7.19,26.33C80.24,334.25,80.46,342,78.48,340.3z"/>
		<g>
			<path style="fill:#F5F5F5;" d="M84.1,343.71c-0.02-0.03,0.07-0.19,0.18-0.27c13.59-9.4,10.24-30.11,6.12-42.95
				c-0.92-2.86-1.88-5.82-2.02-8.87c2.89,3.46,4.63,8.01,6.56,12.13c0.25,0.54,0.89,0.35,0.8-0.24c-1.03-6.62-1.44-27.43,4.57-27.06
				c2.72,0.17-0.31,18.27-0.42,21.96c-0.02,0.59,0.72,0.82,0.87,0.27c1.78-6.42,14.05-19.69,16.28-17.04
				c0.95,1.13-4.79,7.36-6.74,10.29c-3.66,5.49-6.18,11.62-8.51,17.75c-0.21,0.54,0.46,1.11,0.75,0.65
				c2.17-3.43,10.29-11.68,13.04-7.59c1.99,2.96-3.32,7.26-5.94,9.8c-4.65,4.51-9.07,9.49-11.33,15.49
				C96.76,332.12,85.74,345.9,84.1,343.71z"/>
		</g>
		<path style="fill:#E6E6E6;" d="M85.76,341.73c0.09-0.09,0.14-0.22,0.14-0.35c-0.02-2.39,0.15-25.85,13.6-42.65
			c11.38-14.21-0.52-3.87-5.68,0.79c-0.41,0.37-1.04-0.11-0.78-0.6c3.45-6.63,12.07-24.14,8.58-27.27
			c-3.3-2.96-8.91,12.91-11.39,20.59c-0.18,0.56-1,0.41-0.98-0.18c0.4-8.01,0.7-24.73-3.75-23.9c-4.41,0.82-1.98,22.76-0.51,33.48
			c0.08,0.59-0.76,0.8-0.96,0.24c-2.36-6.52-6.71-16.1-11.05-13.27c-6.42,4.2,10.7,16.8,10.47,31.49
			C83.23,334.5,83.47,343.92,85.76,341.73z"/>
		<path style="fill:#E6E6E6;" d="M94.85,377.68c4.08-15.2,6.76-36.62,6.76-41.89H71.2c0,5.27,2.69,26.69,6.76,41.89
			c0.75,2.79,3.29,4.73,6.18,4.73h4.52C91.56,382.41,94.1,380.47,94.85,377.68z"/>
	</g>
	<g>
		<path style="fill:#E6E6E6;" d="M427.66,381.43h-27.38c-3.33,0-6.07-2.6-6.25-5.92l-3.35-62.79h46.57l-3.35,62.79
			C433.73,378.83,430.98,381.43,427.66,381.43z"/>
		<rect x="407.66" y="316.58" style="fill:#FAFAFA;" width="12.62" height="12.62"/>
		<rect x="407.66" y="332.3" style="fill:#FAFAFA;" width="12.62" height="12.62"/>
		<rect x="407.66" y="348.03" style="fill:#FAFAFA;" width="12.62" height="12.62"/>
		<rect x="407.66" y="363.76" style="fill:#FAFAFA;" width="12.62" height="12.62"/>
		<path style="fill:#F5F5F5;" d="M438.68,312.72h-49.42c-0.69,0-1.25-0.56-1.25-1.25v-2.08c0-0.69,0.56-1.25,1.25-1.25h49.42
			c0.69,0,1.25,0.56,1.25,1.25v2.08C439.93,312.16,439.37,312.72,438.68,312.72z"/>
		<path style="fill:#FAFAFA;" d="M430.86,363.76h-7.34v12.62h6.41c0.17-0.32,0.29-0.67,0.31-1.06L430.86,363.76z"/>
		<path style="fill:#FAFAFA;" d="M404.41,363.76h-7.34l0.62,11.56c0.02,0.39,0.14,0.74,0.31,1.06h6.41V363.76z"/>
		<polygon style="fill:#FAFAFA;" points="404.41,348.03 396.24,348.03 396.91,360.65 404.41,360.65 		"/>
		<polygon style="fill:#FAFAFA;" points="404.41,332.3 395.4,332.3 396.07,344.92 404.41,344.92 		"/>
		<polygon style="fill:#FAFAFA;" points="404.41,316.58 394.56,316.58 395.23,329.19 404.41,329.19 		"/>
		<polygon style="fill:#FAFAFA;" points="423.53,348.03 423.53,360.65 431.03,360.65 431.7,348.03 		"/>
		<polygon style="fill:#FAFAFA;" points="423.53,332.3 423.53,344.92 431.87,344.92 432.54,332.3 		"/>
		<polygon style="fill:#FAFAFA;" points="423.53,316.58 423.53,329.19 432.71,329.19 433.38,316.58 		"/>
	</g>
</g>
<g id="Background_Simple" style="display:none;">
	<g style="display:inline;">
		<path style="fill:#407BFF;" d="M168.53,131.58c-30.06,16.43-119.62,61.99-105.86,133.54c14.34,74.56,72.3,75.59,146.05,51.41
			c68.87-22.58,65.63,56.84,158.78,26.3c78.87-25.86,111.91-159.8-2.99-222.3C294.76,82.58,202.51,113.01,168.53,131.58z"/>
		<path style="opacity:0.9;fill:#FFFFFF;" d="M168.53,131.58c-30.06,16.43-119.62,61.99-105.86,133.54
			c14.34,74.56,72.3,75.59,146.05,51.41c68.87-22.58,65.63,56.84,158.78,26.3c78.87-25.86,111.91-159.8-2.99-222.3
			C294.76,82.58,202.51,113.01,168.53,131.58z"/>
	</g>
</g>
<g id="Shadow">
	<ellipse id="_x3C_Path_x3E__1_" style="fill:#F5F5F5;" cx="245.18" cy="412.39" rx="193.89" ry="11.32"/>
</g>
<g id="Extraction">
	<g>
		<g>
			<path style="fill:#263238;" d="M396.51,241.47c-7.08,0-15.44-12.93-22.82-24.35c-4.84-7.48-9.54-14.75-14.54-20h16.55v-8H355.4
				c3.63-4.13,7.06-9.45,10.59-14.9c5.54-8.57,12.44-19.24,17.71-19.24h15.52v-8h-15.52c-9.63,0-16.82,11.12-24.43,22.9
				c-5.54,8.57-12.44,19.24-17.71,19.24h-16.69H193.61h-19.28h-9.91c-5.27,0-12.17-10.67-17.71-19.24
				c-7.61-11.78-14.8-22.9-24.43-22.9h-15.52v8h15.52c5.27,0,12.17,10.67,17.71,19.24c3.53,5.45,6.96,10.77,10.59,14.9h-71.9v8
				h80.66c-5,5.26-9.7,12.52-14.54,20c-7.38,11.41-15.74,24.35-22.82,24.35H92.56v8h29.42c11.43,0,20.23-13.6,29.54-28
				c7.38-11.41,15.74-24.35,22.82-24.35h19.28h131.27h19.28c7.08,0,15.44,12.93,22.82,24.35c9.31,14.4,18.1,28,29.53,28h29.42v-8
				H396.51z"/>
		</g>
		<g style="opacity:0.4;">
			<path style="fill:#FFFFFF;" d="M351.72,195.21l-0.43,0.62c5.89,4.06,11.47,12.26,17.62,21.76l0.63-0.41
				C363.35,207.61,357.73,199.35,351.72,195.21z"/>
			<path style="fill:#FFFFFF;" d="M377.34,228.96l-0.61,0.43c3.45,4.93,6.32,8.41,9.04,10.96l0.51-0.55
				C383.59,237.29,380.75,233.85,377.34,228.96z"/>
			<path style="fill:#FFFFFF;" d="M370.83,220.55c1.29,2,2.59,3.99,3.89,5.92l0.62-0.42c-1.3-1.93-2.59-3.91-3.88-5.91
				L370.83,220.55z"/>
			<path style="fill:#FFFFFF;" d="M388.95,242.04l-0.44,0.61c2.77,2.01,5.39,2.98,7.99,2.98h19.84v-0.75h-19.84
				C394.06,244.88,391.59,243.95,388.95,242.04z"/>
			<rect x="419.93" y="244.88" style="fill:#FFFFFF;" width="6" height="0.75"/>
			<rect x="78.68" y="192.53" style="fill:#FFFFFF;" width="6" height="0.75"/>
			<rect x="90.49" y="192.53" style="fill:#FFFFFF;" width="23.27" height="0.75"/>
			<path style="fill:#FFFFFF;" d="M119.58,192.53v0.75h46.53v-0.75h-1.69c-1.76,0-3.52-0.6-5.4-1.83l-0.41,0.63
				c0.76,0.5,1.5,0.9,2.24,1.21H119.58z"/>
			<rect x="288.26" y="192.53" style="fill:#FFFFFF;" width="23.27" height="0.75"/>
			<path style="fill:#FFFFFF;" d="M363.88,193.28v-0.75h-18.74c0.74-0.31,1.48-0.71,2.24-1.21l-0.41-0.63
				c-1.88,1.23-3.64,1.83-5.4,1.83h-7.15h-3.54h-6h-7.53v0.75h7.53h6h3.54h9.74c1.35,0,2.73,0.29,4.13,0.88l0.29-0.69
				c-0.17-0.07-0.33-0.12-0.5-0.18H363.88z"/>
			<rect x="270.81" y="192.53" style="fill:#FFFFFF;" width="11.63" height="0.75"/>
			<rect x="218.46" y="192.53" style="fill:#FFFFFF;" width="46.53" height="0.75"/>
			<rect x="369.7" y="192.53" style="fill:#FFFFFF;" width="6" height="0.75"/>
			<path style="fill:#FFFFFF;" d="M361.27,174.62l-0.63-0.41c-3.12,4.79-6.75,10.19-10.4,13.78l0.53,0.54
				C354.48,184.88,358.14,179.44,361.27,174.62z"/>
			<path style="fill:#FFFFFF;" d="M383.71,151.13h5.18v-0.75h-5.18h0c-7.64,0-14.58,10.72-20.7,20.18l0.63,0.41
				C369.66,161.67,376.48,151.13,383.71,151.13z"/>
			<rect x="393.23" y="150.38" style="fill:#FFFFFF;" width="6" height="0.75"/>
			<path style="fill:#FFFFFF;" d="M155.74,187.99c-3.65-3.58-7.28-8.99-10.4-13.78l-0.63,0.41c3.14,4.82,6.8,10.26,10.5,13.9
				L155.74,187.99z"/>
			<path style="fill:#FFFFFF;" d="M142.35,170.97l0.63-0.41c-6.12-9.46-13.06-20.18-20.7-20.18h-5.18v0.75h5.18
				C129.5,151.13,136.33,161.67,142.35,170.97z"/>
			<rect x="106.75" y="150.38" style="fill:#FFFFFF;" width="6" height="0.75"/>
			<polygon style="fill:#FFFFFF;" points="189.38,192.53 187.61,192.53 187.61,193.28 189.38,193.28 193.61,193.28 212.65,193.28 
				212.65,192.53 193.61,192.53 			"/>
			<path style="fill:#FFFFFF;" d="M148.94,217.18l0.63,0.41c6.15-9.5,11.73-17.69,17.62-21.76l-0.43-0.62
				C160.75,199.35,155.13,207.61,148.94,217.18z"/>
			<path style="fill:#FFFFFF;" d="M174.33,192.53h-2.4v0.29c-0.67,0.15-1.34,0.36-2.01,0.64l0.29,0.69
				c1.39-0.58,2.78-0.88,4.13-0.88h9.23h0.51v-0.75h-0.51H174.33z"/>
			<path style="fill:#FFFFFF;" d="M121.98,244.88h-19.84v0.75h19.84c2.61,0,5.22-0.98,7.99-2.98l-0.44-0.61
				C126.89,243.95,124.42,244.88,121.98,244.88z"/>
			<path style="fill:#FFFFFF;" d="M143.14,226.05l0.62,0.42c1.3-1.93,2.59-3.92,3.89-5.92l-0.63-0.41
				C145.73,222.13,144.44,224.12,143.14,226.05z"/>
			<path style="fill:#FFFFFF;" d="M132.21,239.8l0.51,0.55c2.72-2.55,5.59-6.03,9.04-10.96l-0.61-0.43
				C137.73,233.85,134.9,237.29,132.21,239.8z"/>
			<rect x="92.56" y="244.88" style="fill:#FFFFFF;" width="6" height="0.75"/>
		</g>
	</g>
</g>
<g id="Folders">
	<g>
		<g>
			<path style="fill:#F1C111;" d="M122.32,226.15h-7.33c-1.73,0-3.34,0.87-4.29,2.3l-1.07,1.62c-0.87,1.32-2.35,2.11-3.93,2.11
				H86.78c-1.7,0-3.07,1.38-3.07,3.07v29.54h42.65v-32.61l-0.38-2.84C125.74,227.52,124.17,226.15,122.32,226.15z"/>
			<path style="opacity:0.2;fill:#FFFFFF;" d="M122.32,226.15h-7.33c-1.73,0-3.34,0.87-4.29,2.3l-1.07,1.62
				c-0.87,1.32-2.35,2.11-3.93,2.11H86.78c-1.7,0-3.07,1.38-3.07,3.07v29.54h42.65v-32.61l-0.38-2.84
				C125.74,227.52,124.17,226.15,122.32,226.15z"/>
		</g>
		<g>
			<rect x="86.91" y="235.92" style="fill:#263238;" width="36.25" height="24.79"/>
			<rect x="86.91" y="235.92" style="opacity:0.9;fill:#FFFFFF;" width="36.25" height="24.79"/>
		</g>
		<g>
			<path style="fill:#F1C111;" d="M126.36,264.79H83.71l-6.26-22.78c-0.47-1.73,0.82-3.43,2.61-3.43h34.95
				c2.45,0,4.59,1.64,5.24,3.99L126.36,264.79z"/>
			<path style="opacity:0.6;fill:#FFFFFF;" d="M126.36,264.79H83.71l-6.26-22.78c-0.47-1.73,0.82-3.43,2.61-3.43h34.95
				c2.45,0,4.59,1.64,5.24,3.99L126.36,264.79z"/>
		</g>
	</g>
	<g>
		<g>
			<path style="fill:#F1C111;" d="M75.2,117.57h7.91c1.86,0,3.6,0.93,4.63,2.49l1.16,1.75c0.94,1.42,2.54,2.28,4.24,2.28h20.41
				c1.83,0,3.31,1.48,3.31,3.31v29.16c0,1.5-1.21,2.71-2.71,2.71H73.56c-1.49,0-2.71-1.21-2.71-2.71v-32.47l0.41-3.06
				C71.52,119.04,73.2,117.57,75.2,117.57z"/>
			<path style="opacity:0.6;fill:#FFFFFF;" d="M75.2,117.57h7.91c1.86,0,3.6,0.93,4.63,2.49l1.16,1.75
				c0.94,1.42,2.54,2.28,4.24,2.28h20.41c1.83,0,3.31,1.48,3.31,3.31v29.16c0,1.5-1.21,2.71-2.71,2.71H73.56
				c-1.49,0-2.71-1.21-2.71-2.71v-32.47l0.41-3.06C71.52,119.04,73.2,117.57,75.2,117.57z"/>
		</g>
		<g>
			<rect x="104.5" y="124.08" style="fill:#263238;" width="4.09" height="28.33"/>
			<rect x="104.5" y="124.08" style="opacity:0.5;fill:#FFFFFF;" width="4.09" height="28.33"/>
		</g>
		<rect x="103.53" y="125.43" style="fill:#263238;" width="3.14" height="2.33"/>
		<rect x="103.53" y="130.51" style="fill:#263238;" width="3.14" height="2.33"/>
		<rect x="103.53" y="135.59" style="fill:#263238;" width="3.14" height="2.33"/>
		<rect x="103.53" y="140.67" style="fill:#263238;" width="3.14" height="2.33"/>
		<rect x="103.53" y="145.75" style="fill:#263238;" width="3.14" height="2.33"/>
		<g>
			<rect x="103.53" y="125.43" style="opacity:0.7;fill:#FFFFFF;" width="3.14" height="2.33"/>
			<rect x="103.53" y="130.51" style="opacity:0.7;fill:#FFFFFF;" width="3.14" height="2.33"/>
			<rect x="103.53" y="135.59" style="opacity:0.7;fill:#FFFFFF;" width="3.14" height="2.33"/>
			<rect x="103.53" y="140.67" style="opacity:0.7;fill:#FFFFFF;" width="3.14" height="2.33"/>
			<rect x="103.53" y="145.75" style="opacity:0.7;fill:#FFFFFF;" width="3.14" height="2.33"/>
		</g>
		<g>
			<g>
				<rect x="106.57" y="127.76" style="fill:#263238;" width="3.14" height="2.33"/>
				<rect x="106.57" y="132.84" style="fill:#263238;" width="3.14" height="2.33"/>
				<rect x="106.57" y="137.92" style="fill:#263238;" width="3.14" height="2.33"/>
				<rect x="106.57" y="143" style="fill:#263238;" width="3.14" height="2.33"/>
				<rect x="106.57" y="148.08" style="fill:#263238;" width="3.14" height="2.33"/>
			</g>
			<g style="opacity:0.8;">
				<rect x="106.57" y="127.76" style="fill:#FFFFFF;" width="3.14" height="2.33"/>
				<rect x="106.57" y="132.84" style="fill:#FFFFFF;" width="3.14" height="2.33"/>
				<rect x="106.57" y="137.92" style="fill:#FFFFFF;" width="3.14" height="2.33"/>
				<rect x="106.57" y="143" style="fill:#FFFFFF;" width="3.14" height="2.33"/>
				<rect x="106.57" y="148.08" style="fill:#FFFFFF;" width="3.14" height="2.33"/>
			</g>
		</g>
		<g>
			<path style="fill:#263238;" d="M102.17,150.42v9.29h8.99v-9.29H102.17z M109.71,158.02h-5.96v-5.92h5.96V158.02z"/>
			<path style="opacity:0.7;fill:#FFFFFF;" d="M102.17,150.42v9.29h8.99v-9.29H102.17z M109.71,158.02h-5.96v-5.92h5.96V158.02z"/>
		</g>
	</g>
	<g>
		<g>
			<polygon style="fill:#F1C111;" points="104.7,171.15 63.01,171.15 63.01,180.44 72.29,189.72 113.98,189.72 113.98,180.43 			"/>
			<polygon style="opacity:0.3;fill:#FFFFFF;" points="104.7,171.15 63.01,171.15 63.01,180.44 72.29,189.72 113.98,189.72 
				113.98,180.43 			"/>
		</g>
		<g>
			<rect x="72.29" y="189.71" style="fill:#F1C111;" width="41.69" height="9.29"/>
			<rect x="72.29" y="189.71" style="opacity:0.3;fill:#FFFFFF;" width="41.69" height="9.29"/>
		</g>
		<g>
			<rect x="72.29" y="199" style="fill:#F1C111;" width="41.69" height="9.29"/>
			<rect x="72.29" y="199" style="opacity:0.6;fill:#FFFFFF;" width="41.69" height="9.29"/>
		</g>
		<g>
			<rect x="72.29" y="180.43" style="fill:#F1C111;" width="41.69" height="9.29"/>
		</g>
		<g>
			<polygon style="fill:#F1C111;" points="88.01,208.29 97.37,208.29 97.37,180.43 88.09,171.15 78.73,171.15 88.01,180.43 			"/>
			<polygon style="opacity:0.2;" points="88.01,208.29 97.37,208.29 97.37,180.43 88.09,171.15 78.73,171.15 88.01,180.43 			"/>
		</g>
		<g>
			<path style="fill:#263238;" d="M85.52,187.07v14.59h14.12v-14.59H85.52z M97.37,199h-9.36v-9.29h9.36V199z"/>
			<path style="opacity:0.5;fill:#FFFFFF;" d="M85.52,187.07v14.59h14.12v-14.59H85.52z M97.37,199h-9.36v-9.29h9.36V199z"/>
		</g>
		<g>
			<polygon style="fill:#263238;" points="63.01,171.15 63.01,180.44 72.29,189.72 72.29,180.43 			"/>
			<polygon style="opacity:0.5;fill:#FFFFFF;" points="63.01,171.15 63.01,180.44 72.29,189.72 72.29,180.43 			"/>
		</g>
		<g>
			<polygon style="fill:#263238;" points="63.01,180.43 63.01,189.73 72.29,199 72.29,189.71 			"/>
			<polygon style="opacity:0.6;fill:#FFFFFF;" points="63.01,180.43 63.01,189.73 72.29,199 72.29,189.71 			"/>
		</g>
		<g>
			<polygon style="fill:#263238;" points="63.01,189.72 63.01,199.01 72.29,208.29 72.29,199 			"/>
			<polygon style="opacity:0.8;fill:#FFFFFF;" points="63.01,189.72 63.01,199.01 72.29,208.29 72.29,199 			"/>
		</g>
	</g>
</g>
<g id="Documents">
	<g>
		<g>
			<rect x="388.48" y="213.89" style="fill:#F1C111;" width="45.46" height="61.18"/>
			<rect x="388.48" y="213.89" style="opacity:0.7;fill:#FFFFFF;" width="45.46" height="61.18"/>
		</g>
		<rect x="391.45" y="216.86" style="opacity:0.7;fill:#FFFFFF;" width="39.52" height="15.93"/>
		<rect x="391.45" y="236.51" style="opacity:0.7;fill:#FFFFFF;" width="39.52" height="15.93"/>
		<polygon style="fill:#F1C111;" points="430.97,225.45 427.28,220.96 422.73,226.51 418.18,219.97 413.35,224.8 408.61,222.13 
			404.29,229.29 399.98,222.13 395.09,224.9 391.45,222.84 391.45,224.54 395.09,226.6 399.46,224.13 404.29,232.17 409.13,224.13 
			413.6,226.64 417.97,222.27 422.63,228.97 427.28,223.3 430.97,227.79 		"/>
		<polygon style="opacity:0.5;fill:#FFFFFF;" points="430.97,225.45 427.28,220.96 422.73,226.51 418.18,219.97 413.35,224.8 
			408.61,222.13 404.29,229.29 399.98,222.13 395.09,224.9 391.45,222.84 391.45,224.54 395.09,226.6 399.46,224.13 404.29,232.17 
			409.13,224.13 413.6,226.64 417.97,222.27 422.63,228.97 427.28,223.3 430.97,227.79 		"/>
		<polygon style="fill:#F1C111;" points="430.97,241.35 427.25,243.45 422.36,240.68 418.05,247.84 413.74,240.69 409,243.35 
			404.17,238.52 399.62,245.06 395.06,239.51 391.45,243.92 391.45,246.26 395.06,241.85 399.71,247.52 404.37,240.82 408.74,245.2 
			413.21,242.69 418.05,250.72 422.89,242.69 427.25,245.15 430.97,243.06 		"/>
		<polygon style="opacity:0.5;fill:#FFFFFF;" points="430.97,241.35 427.25,243.45 422.36,240.68 418.05,247.84 413.74,240.69 
			409,243.35 404.17,238.52 399.62,245.06 395.06,239.51 391.45,243.92 391.45,246.26 395.06,241.85 399.71,247.52 404.37,240.82 
			408.74,245.2 413.21,242.69 418.05,250.72 422.89,242.69 427.25,245.15 430.97,243.06 		"/>
		<g>
			<g>
				<g>
					<path style="fill:#263238;" d="M407.77,256.91c7.55,0,15.1,0,22.65,0c0.96,0,0.96-1.48,0-1.48c-7.55,0-15.1,0-22.65,0
						C406.81,255.43,406.81,256.91,407.77,256.91L407.77,256.91z"/>
				</g>
				<g>
					<path style="fill:#263238;" d="M407.77,260.96c6.56,0,13.12,0,19.68,0c0.96,0,0.96-1.49,0-1.49c-6.56,0-13.12,0-19.68,0
						C406.81,259.47,406.81,260.96,407.77,260.96L407.77,260.96z"/>
				</g>
				<g>
					<path style="fill:#263238;" d="M407.77,265c6.56,0,13.12,0,19.68,0c0.96,0,0.96-1.49,0-1.49c-6.56,0-13.12,0-19.68,0
						C406.81,263.51,406.81,265,407.77,265L407.77,265z"/>
				</g>
				<g>
					<path style="fill:#263238;" d="M407.77,269.04c6.89,0,13.78,0,20.67,0c0.96,0,0.96-1.48,0-1.48c-6.89,0-13.78,0-20.67,0
						C406.81,267.56,406.81,269.04,407.77,269.04L407.77,269.04z"/>
				</g>
			</g>
			<g style="opacity:0.4;">
				<g>
					<path style="fill:#FFFFFF;" d="M407.77,256.91c7.55,0,15.1,0,22.65,0c0.96,0,0.96-1.48,0-1.48c-7.55,0-15.1,0-22.65,0
						C406.81,255.43,406.81,256.91,407.77,256.91L407.77,256.91z"/>
				</g>
				<g>
					<path style="fill:#FFFFFF;" d="M407.77,260.96c6.56,0,13.12,0,19.68,0c0.96,0,0.96-1.49,0-1.49c-6.56,0-13.12,0-19.68,0
						C406.81,259.47,406.81,260.96,407.77,260.96L407.77,260.96z"/>
				</g>
				<g>
					<path style="fill:#FFFFFF;" d="M407.77,265c6.56,0,13.12,0,19.68,0c0.96,0,0.96-1.49,0-1.49c-6.56,0-13.12,0-19.68,0
						C406.81,263.51,406.81,265,407.77,265L407.77,265z"/>
				</g>
				<g>
					<path style="fill:#FFFFFF;" d="M407.77,269.04c6.89,0,13.78,0,20.67,0c0.96,0,0.96-1.48,0-1.48c-6.89,0-13.78,0-20.67,0
						C406.81,267.56,406.81,269.04,407.77,269.04L407.77,269.04z"/>
				</g>
			</g>
		</g>
	</g>
	<g>
		<g>
			<rect x="390.28" y="119.78" style="fill:#F1C111;" width="41.33" height="55.62"/>
			<rect x="390.28" y="119.78" style="opacity:0.6;fill:#FFFFFF;" width="41.33" height="55.62"/>
		</g>
		<rect x="392.98" y="122.48" style="opacity:0.7;fill:#FFFFFF;" width="35.93" height="14.48"/>
		<g>
			<g>
				<path style="fill:#263238;" d="M407.93,141.31c6.86,0,13.72,0,20.59,0c0.87,0,0.87-1.35,0-1.35c-6.86,0-13.72,0-20.59,0
					C407.06,139.96,407.06,141.31,407.93,141.31L407.93,141.31z"/>
			</g>
			<g>
				<path style="fill:#263238;" d="M407.93,144.99c5.96,0,11.92,0,17.89,0c0.87,0,0.87-1.35,0-1.35c-5.96,0-11.92,0-17.89,0
					C407.06,143.64,407.06,144.99,407.93,144.99L407.93,144.99z"/>
			</g>
			<g>
				<path style="fill:#263238;" d="M407.93,148.66c5.96,0,11.92,0,17.89,0c0.87,0,0.87-1.35,0-1.35c-5.96,0-11.92,0-17.89,0
					C407.06,147.31,407.06,148.66,407.93,148.66L407.93,148.66z"/>
			</g>
			<g>
				<path style="fill:#263238;" d="M407.93,152.34c6.26,0,12.52,0,18.79,0c0.87,0,0.87-1.35,0-1.35c-6.26,0-12.52,0-18.79,0
					C407.06,150.99,407.06,152.34,407.93,152.34L407.93,152.34z"/>
			</g>
			<g>
				<path style="fill:#263238;" d="M407.93,156.01c5.06,0,10.12,0,15.19,0c0.87,0,0.87-1.35,0-1.35c-5.06,0-10.12,0-15.19,0
					C407.06,154.66,407.06,156.01,407.93,156.01L407.93,156.01z"/>
			</g>
			<g>
				<path style="fill:#263238;" d="M407.93,159.69c6.86,0,13.72,0,20.59,0c0.87,0,0.87-1.35,0-1.35c-6.86,0-13.72,0-20.59,0
					C407.06,158.34,407.06,159.69,407.93,159.69L407.93,159.69z"/>
			</g>
			<g>
				<path style="fill:#263238;" d="M407.93,163.36c5.96,0,11.92,0,17.89,0c0.87,0,0.87-1.35,0-1.35c-5.96,0-11.92,0-17.89,0
					C407.06,162.01,407.06,163.36,407.93,163.36L407.93,163.36z"/>
			</g>
			<g>
				<path style="fill:#263238;" d="M407.93,167.04c5.96,0,11.92,0,17.89,0c0.87,0,0.87-1.35,0-1.35c-5.96,0-11.92,0-17.89,0
					C407.06,165.69,407.06,167.04,407.93,167.04L407.93,167.04z"/>
			</g>
			<g>
				<path style="fill:#263238;" d="M407.93,170.71c6.26,0,12.52,0,18.79,0c0.87,0,0.87-1.35,0-1.35c-6.26,0-12.52,0-18.79,0
					C407.06,169.36,407.06,170.71,407.93,170.71L407.93,170.71z"/>
			</g>
			<g style="opacity:0.4;">
				<path style="fill:#FFFFFF;" d="M407.93,141.31c6.86,0,13.72,0,20.59,0c0.87,0,0.87-1.35,0-1.35c-6.86,0-13.72,0-20.59,0
					C407.06,139.96,407.06,141.31,407.93,141.31L407.93,141.31z"/>
			</g>
			<g style="opacity:0.4;">
				<path style="fill:#FFFFFF;" d="M407.93,144.99c5.96,0,11.92,0,17.89,0c0.87,0,0.87-1.35,0-1.35c-5.96,0-11.92,0-17.89,0
					C407.06,143.64,407.06,144.99,407.93,144.99L407.93,144.99z"/>
			</g>
			<g style="opacity:0.4;">
				<path style="fill:#FFFFFF;" d="M407.93,148.66c5.96,0,11.92,0,17.89,0c0.87,0,0.87-1.35,0-1.35c-5.96,0-11.92,0-17.89,0
					C407.06,147.31,407.06,148.66,407.93,148.66L407.93,148.66z"/>
			</g>
			<g style="opacity:0.4;">
				<path style="fill:#FFFFFF;" d="M407.93,152.34c6.26,0,12.52,0,18.79,0c0.87,0,0.87-1.35,0-1.35c-6.26,0-12.52,0-18.79,0
					C407.06,150.99,407.06,152.34,407.93,152.34L407.93,152.34z"/>
			</g>
			<g style="opacity:0.4;">
				<path style="fill:#FFFFFF;" d="M407.93,156.01c5.06,0,10.12,0,15.19,0c0.87,0,0.87-1.35,0-1.35c-5.06,0-10.12,0-15.19,0
					C407.06,154.66,407.06,156.01,407.93,156.01L407.93,156.01z"/>
			</g>
			<g style="opacity:0.4;">
				<path style="fill:#FFFFFF;" d="M407.93,159.69c6.86,0,13.72,0,20.59,0c0.87,0,0.87-1.35,0-1.35c-6.86,0-13.72,0-20.59,0
					C407.06,158.34,407.06,159.69,407.93,159.69L407.93,159.69z"/>
			</g>
			<g style="opacity:0.4;">
				<path style="fill:#FFFFFF;" d="M407.93,163.36c5.96,0,11.92,0,17.89,0c0.87,0,0.87-1.35,0-1.35c-5.96,0-11.92,0-17.89,0
					C407.06,162.01,407.06,163.36,407.93,163.36L407.93,163.36z"/>
			</g>
			<g style="opacity:0.4;">
				<path style="fill:#FFFFFF;" d="M407.93,167.04c5.96,0,11.92,0,17.89,0c0.87,0,0.87-1.35,0-1.35c-5.96,0-11.92,0-17.89,0
					C407.06,165.69,407.06,167.04,407.93,167.04L407.93,167.04z"/>
			</g>
			<g style="opacity:0.4;">
				<path style="fill:#FFFFFF;" d="M407.93,170.71c6.26,0,12.52,0,18.79,0c0.87,0,0.87-1.35,0-1.35c-6.26,0-12.52,0-18.79,0
					C407.06,169.36,407.06,170.71,407.93,170.71L407.93,170.71z"/>
			</g>
		</g>
		<g>
			<rect x="392.98" y="140.64" style="fill:#F1C111;" width="10.13" height="10.13"/>
			<rect x="392.98" y="140.64" style="opacity:0.3;fill:#FFFFFF;" width="10.13" height="10.13"/>
		</g>
		<g>
			<rect x="401.35" y="130.17" style="fill:#F1C111;" width="2.74" height="5.48"/>
			<rect x="406.84" y="127.42" style="fill:#F1C111;" width="2.74" height="8.22"/>
			<rect x="412.32" y="128.8" style="fill:#F1C111;" width="2.74" height="6.85"/>
			<rect x="417.8" y="124.68" style="fill:#F1C111;" width="2.74" height="10.97"/>
		</g>
	</g>
	<g>
		<g>
			<rect x="370.04" y="165.99" style="fill:#F1C111;" width="41.33" height="55.62"/>
			<rect x="370.04" y="165.99" style="opacity:0.8;fill:#FFFFFF;" width="41.33" height="55.62"/>
		</g>
		<g>
			<g>
				<g>
					<path style="fill:#263238;" d="M387.69,171.95c6.86,0,13.72,0,20.59,0c0.87,0,0.87-1.35,0-1.35c-6.86,0-13.72,0-20.59,0
						C386.82,170.6,386.82,171.95,387.69,171.95L387.69,171.95z"/>
				</g>
				<g>
					<path style="fill:#263238;" d="M387.69,175.63c5.96,0,11.92,0,17.89,0c0.87,0,0.87-1.35,0-1.35c-5.96,0-11.92,0-17.89,0
						C386.82,174.28,386.82,175.63,387.69,175.63L387.69,175.63z"/>
				</g>
				<g>
					<path style="fill:#263238;" d="M387.69,179.3c5.96,0,11.92,0,17.89,0c0.87,0,0.87-1.35,0-1.35c-5.96,0-11.92,0-17.89,0
						C386.82,177.95,386.82,179.3,387.69,179.3L387.69,179.3z"/>
				</g>
				<g>
					<path style="fill:#263238;" d="M387.69,182.98c6.26,0,12.52,0,18.79,0c0.87,0,0.87-1.35,0-1.35c-6.26,0-12.52,0-18.79,0
						C386.82,181.63,386.82,182.98,387.69,182.98L387.69,182.98z"/>
				</g>
				<g>
					<path style="fill:#263238;" d="M387.69,186.65c5.06,0,10.12,0,15.19,0c0.87,0,0.87-1.35,0-1.35c-5.06,0-10.12,0-15.19,0
						C386.82,185.3,386.82,186.65,387.69,186.65L387.69,186.65z"/>
				</g>
				<g>
					<path style="fill:#263238;" d="M387.69,190.33c6.86,0,13.72,0,20.59,0c0.87,0,0.87-1.35,0-1.35c-6.86,0-13.72,0-20.59,0
						C386.82,188.98,386.82,190.33,387.69,190.33L387.69,190.33z"/>
				</g>
				<g>
					<path style="fill:#263238;" d="M387.69,194c5.96,0,11.92,0,17.89,0c0.87,0,0.87-1.35,0-1.35c-5.96,0-11.92,0-17.89,0
						C386.82,192.65,386.82,194,387.69,194L387.69,194z"/>
				</g>
				<g>
					<path style="fill:#263238;" d="M387.69,197.68c5.96,0,11.92,0,17.89,0c0.87,0,0.87-1.35,0-1.35c-5.96,0-11.92,0-17.89,0
						C386.82,196.33,386.82,197.68,387.69,197.68L387.69,197.68z"/>
				</g>
				<g>
					<path style="fill:#263238;" d="M387.69,205.03c5.06,0,10.12,0,15.19,0c0.87,0,0.87-1.35,0-1.35c-5.06,0-10.12,0-15.19,0
						C386.82,203.68,386.82,205.03,387.69,205.03L387.69,205.03z"/>
				</g>
				<g>
					<path style="fill:#263238;" d="M387.69,208.71c6.86,0,13.72,0,20.59,0c0.87,0,0.87-1.35,0-1.35c-6.86,0-13.72,0-20.59,0
						C386.82,207.36,386.82,208.71,387.69,208.71L387.69,208.71z"/>
				</g>
				<g>
					<path style="fill:#263238;" d="M387.69,212.38c5.96,0,11.92,0,17.89,0c0.87,0,0.87-1.35,0-1.35c-5.96,0-11.92,0-17.89,0
						C386.82,211.03,386.82,212.38,387.69,212.38L387.69,212.38z"/>
				</g>
				<g>
					<path style="fill:#263238;" d="M387.69,216.06c5.96,0,11.92,0,17.89,0c0.87,0,0.87-1.35,0-1.35c-5.96,0-11.92,0-17.89,0
						C386.82,214.71,386.82,216.06,387.69,216.06L387.69,216.06z"/>
				</g>
				<g>
					<path style="fill:#263238;" d="M387.69,201.35c6.26,0,12.52,0,18.79,0c0.87,0,0.87-1.35,0-1.35c-6.26,0-12.52,0-18.79,0
						C386.82,200,386.82,201.35,387.69,201.35L387.69,201.35z"/>
				</g>
			</g>
			<g style="opacity:0.4;">
				<g>
					<path style="fill:#FFFFFF;" d="M387.69,171.95c6.86,0,13.72,0,20.59,0c0.87,0,0.87-1.35,0-1.35c-6.86,0-13.72,0-20.59,0
						C386.82,170.6,386.82,171.95,387.69,171.95L387.69,171.95z"/>
				</g>
				<g>
					<path style="fill:#FFFFFF;" d="M387.69,175.63c5.96,0,11.92,0,17.89,0c0.87,0,0.87-1.35,0-1.35c-5.96,0-11.92,0-17.89,0
						C386.82,174.28,386.82,175.63,387.69,175.63L387.69,175.63z"/>
				</g>
				<g>
					<path style="fill:#FFFFFF;" d="M387.69,179.3c5.96,0,11.92,0,17.89,0c0.87,0,0.87-1.35,0-1.35c-5.96,0-11.92,0-17.89,0
						C386.82,177.95,386.82,179.3,387.69,179.3L387.69,179.3z"/>
				</g>
				<g>
					<path style="fill:#FFFFFF;" d="M387.69,182.98c6.26,0,12.52,0,18.79,0c0.87,0,0.87-1.35,0-1.35c-6.26,0-12.52,0-18.79,0
						C386.82,181.63,386.82,182.98,387.69,182.98L387.69,182.98z"/>
				</g>
				<g>
					<path style="fill:#FFFFFF;" d="M387.69,186.65c5.06,0,10.12,0,15.19,0c0.87,0,0.87-1.35,0-1.35c-5.06,0-10.12,0-15.19,0
						C386.82,185.3,386.82,186.65,387.69,186.65L387.69,186.65z"/>
				</g>
				<g>
					<path style="fill:#FFFFFF;" d="M387.69,190.33c6.86,0,13.72,0,20.59,0c0.87,0,0.87-1.35,0-1.35c-6.86,0-13.72,0-20.59,0
						C386.82,188.98,386.82,190.33,387.69,190.33L387.69,190.33z"/>
				</g>
				<g>
					<path style="fill:#FFFFFF;" d="M387.69,194c5.96,0,11.92,0,17.89,0c0.87,0,0.87-1.35,0-1.35c-5.96,0-11.92,0-17.89,0
						C386.82,192.65,386.82,194,387.69,194L387.69,194z"/>
				</g>
				<g>
					<path style="fill:#FFFFFF;" d="M387.69,197.68c5.96,0,11.92,0,17.89,0c0.87,0,0.87-1.35,0-1.35c-5.96,0-11.92,0-17.89,0
						C386.82,196.33,386.82,197.68,387.69,197.68L387.69,197.68z"/>
				</g>
				<g>
					<path style="fill:#FFFFFF;" d="M387.69,205.03c5.06,0,10.12,0,15.19,0c0.87,0,0.87-1.35,0-1.35c-5.06,0-10.12,0-15.19,0
						C386.82,203.68,386.82,205.03,387.69,205.03L387.69,205.03z"/>
				</g>
				<g>
					<path style="fill:#FFFFFF;" d="M387.69,208.71c6.86,0,13.72,0,20.59,0c0.87,0,0.87-1.35,0-1.35c-6.86,0-13.72,0-20.59,0
						C386.82,207.36,386.82,208.71,387.69,208.71L387.69,208.71z"/>
				</g>
				<g>
					<path style="fill:#FFFFFF;" d="M387.69,212.38c5.96,0,11.92,0,17.89,0c0.87,0,0.87-1.35,0-1.35c-5.96,0-11.92,0-17.89,0
						C386.82,211.03,386.82,212.38,387.69,212.38L387.69,212.38z"/>
				</g>
				<g>
					<path style="fill:#FFFFFF;" d="M387.69,216.06c5.96,0,11.92,0,17.89,0c0.87,0,0.87-1.35,0-1.35c-5.96,0-11.92,0-17.89,0
						C386.82,214.71,386.82,216.06,387.69,216.06L387.69,216.06z"/>
				</g>
				<g>
					<path style="fill:#FFFFFF;" d="M387.69,201.35c6.26,0,12.52,0,18.79,0c0.87,0,0.87-1.35,0-1.35c-6.26,0-12.52,0-18.79,0
						C386.82,200,386.82,201.35,387.69,201.35L387.69,201.35z"/>
				</g>
			</g>
		</g>
		<g>
			<path style="fill:#F1C111;" d="M376.39,190.57l-1.63-1.63c-1.12,1.12-1.82,2.67-1.82,4.39h2.31
				C375.25,192.25,375.68,191.28,376.39,190.57z"/>
			<path style="fill:#F1C111;" d="M379.14,197.23c-2.15,0-3.9-1.75-3.9-3.9h-2.31c0,3.43,2.78,6.21,6.21,6.21V197.23z"/>
			<path style="opacity:0.3;fill:#FFFFFF;" d="M379.14,197.23c-2.15,0-3.9-1.75-3.9-3.9h-2.31c0,3.43,2.78,6.21,6.21,6.21V197.23z"
				/>
			<path style="fill:#F1C111;" d="M376.39,190.57c0.71-0.71,1.68-1.14,2.76-1.14v-2.31c-1.71,0-3.27,0.69-4.39,1.82L376.39,190.57z"
				/>
			<path style="opacity:0.5;" d="M376.39,190.57c0.71-0.71,1.68-1.14,2.76-1.14v-2.31c-1.71,0-3.27,0.69-4.39,1.82L376.39,190.57z"
				/>
			<path style="fill:#F1C111;" d="M383.04,193.33c0,2.15-1.75,3.9-3.9,3.9v2.31c3.43,0,6.21-2.78,6.21-6.21s-2.78-6.21-6.21-6.21
				v2.31C381.3,189.43,383.04,191.17,383.04,193.33z"/>
			<path style="opacity:0.2;" d="M381.9,196.08l1.63,1.63c1.12-1.12,1.82-2.67,1.82-4.39h-2.31
				C383.04,194.4,382.61,195.38,381.9,196.08z"/>
		</g>
		<g>
			<g>
				<path style="fill:#F1C111;" d="M376.39,178.85l-1.63,1.63c1.12,1.12,2.67,1.82,4.39,1.82V180
					C378.07,180,377.09,179.56,376.39,178.85z"/>
				<path style="fill:#F1C111;" d="M383.04,176.1c0,2.15-1.75,3.9-3.9,3.9v2.31c3.43,0,6.21-2.78,6.21-6.21H383.04z"/>
				<path style="opacity:0.3;fill:#FFFFFF;" d="M383.04,176.1c0,2.15-1.75,3.9-3.9,3.9v2.31c3.43,0,6.21-2.78,6.21-6.21H383.04z"/>
				<path style="fill:#F1C111;" d="M376.39,178.85c-0.71-0.71-1.14-1.68-1.14-2.76h-2.31c0,1.71,0.69,3.27,1.82,4.39L376.39,178.85z
					"/>
				<path style="opacity:0.5;" d="M376.39,178.85c-0.71-0.71-1.14-1.68-1.14-2.76h-2.31c0,1.71,0.69,3.27,1.82,4.39L376.39,178.85z"
					/>
				<path style="fill:#F1C111;" d="M379.14,172.2c2.15,0,3.9,1.75,3.9,3.9h2.31c0-3.43-2.78-6.21-6.21-6.21s-6.21,2.78-6.21,6.21
					h2.31C375.25,173.94,376.99,172.2,379.14,172.2z"/>
				<path style="opacity:0.2;" d="M381.9,173.34l1.63-1.63c-1.12-1.12-2.67-1.82-4.39-1.82v2.31
					C380.22,172.2,381.2,172.63,381.9,173.34z"/>
			</g>
			<g>
				<path style="fill:#F1C111;" d="M381.9,207.8l1.63-1.63c1.12,1.12,1.82,2.67,1.82,4.39h-2.31
					C383.04,209.48,382.61,208.51,381.9,207.8z"/>
				<path style="fill:#F1C111;" d="M379.14,214.46c2.15,0,3.9-1.75,3.9-3.9h2.31c0,3.43-2.78,6.21-6.21,6.21V214.46z"/>
				<path style="opacity:0.3;fill:#FFFFFF;" d="M379.14,214.46c2.15,0,3.9-1.75,3.9-3.9h2.31c0,3.43-2.78,6.21-6.21,6.21V214.46z"/>
				<path style="fill:#F1C111;" d="M381.9,207.8c-0.71-0.71-1.68-1.14-2.76-1.14v-2.31c1.71,0,3.27,0.69,4.39,1.82L381.9,207.8z"/>
				<path style="opacity:0.5;" d="M381.9,207.8c-0.71-0.71-1.68-1.14-2.76-1.14v-2.31c1.71,0,3.27,0.69,4.39,1.82L381.9,207.8z"/>
				<path style="fill:#F1C111;" d="M375.25,210.56c0,2.15,1.75,3.9,3.9,3.9v2.31c-3.43,0-6.21-2.78-6.21-6.21s2.78-6.21,6.21-6.21
					v2.31C376.99,206.66,375.25,208.41,375.25,210.56z"/>
				<path style="opacity:0.2;" d="M376.39,213.32l-1.63,1.63c-1.12-1.12-1.82-2.67-1.82-4.39h2.31
					C375.25,211.64,375.68,212.61,376.39,213.32z"/>
			</g>
		</g>
	</g>
</g>
<g id="Device">
	<g>
		<g>
			<g>
				<path style="fill:#263238;" d="M286.63,283.51h-24.19v-6.77h24.19c1.46,0,2.65,1.19,2.65,2.65v1.47
					C289.28,282.32,288.09,283.51,286.63,283.51z"/>
				<path d="M266.63,283.51h-51.47c-1.36,0-2.46-1.1-2.46-2.46v-1.84c0-1.36,1.1-2.46,2.46-2.46h51.47c1.36,0,2.46,1.1,2.46,2.46
					v1.84C269.09,282.4,267.99,283.51,266.63,283.51z"/>
				<path style="opacity:0.5;fill:#FFFFFF;" d="M266.63,283.51h-51.47c-1.36,0-2.46-1.1-2.46-2.46v-1.84c0-1.36,1.1-2.46,2.46-2.46
					h51.47c1.36,0,2.46,1.1,2.46,2.46v1.84C269.09,282.4,267.99,283.51,266.63,283.51z"/>
				<g>
					<polygon style="fill:#263238;" points="255.32,276.73 268.36,276.73 260.01,245.54 255.32,245.54 					"/>
					<polygon points="266.46,276.73 239.84,276.73 237.19,245.54 258.11,245.54 					"/>
					<polygon style="opacity:0.3;fill:#FFFFFF;" points="266.46,276.73 239.84,276.73 237.19,245.54 258.11,245.54 					"/>
				</g>
			</g>
			<path style="fill:#263238;" d="M333.51,155.89h-12.1l-9.37,107.07h12.1c2.53,0,4.77-2.05,4.99-4.59l8.56-97.9
				C337.92,157.94,336.04,155.89,333.51,155.89z"/>
			<g>
				<path style="fill:#263238;" d="M321.35,262.96H174.87c-2.53,0-4.41-2.05-4.19-4.59l8.56-97.9c0.22-2.53,2.45-4.59,4.99-4.59
					h146.48c2.53,0,4.41,2.05,4.19,4.59l-8.57,97.9C326.12,260.9,323.88,262.96,321.35,262.96z"/>
			</g>
			<path style="opacity:0.7;fill:#FFFFFF;" d="M321.35,262.96H174.87c-2.53,0-4.41-2.05-4.19-4.59l8.56-97.9
				c0.22-2.53,2.45-4.59,4.99-4.59h146.48c2.53,0,4.41,2.05,4.19,4.59l-8.57,97.9C326.12,260.9,323.88,262.96,321.35,262.96z"/>
			<path style="opacity:0.9;fill:#FAFAFA;" d="M317.44,250.46H180.97c-2.2,0-3.82-1.78-3.63-3.98l7.12-81.34
				c0.19-2.2,2.13-3.98,4.33-3.98h136.47c2.2,0,3.82,1.78,3.63,3.98l-7.12,81.34C321.57,248.68,319.64,250.46,317.44,250.46z"/>
			<g>
				<polygon style="fill:#F1C111;" points="281.71,189.88 276.94,189.88 277.77,180.33 282.55,180.33 				"/>
				<polygon style="opacity:0.2;" points="281.71,189.88 276.94,189.88 277.77,180.33 282.55,180.33 				"/>
				<polygon style="fill:#F1C111;" points="291.26,189.88 286.49,189.88 287.74,175.56 292.51,175.56 				"/>
				<polygon style="fill:#F1C111;" points="300.81,189.88 296.03,189.88 297.08,177.95 301.85,177.95 				"/>
				<polygon style="fill:#F1C111;" points="310.36,189.88 305.58,189.88 307.25,170.79 312.03,170.79 				"/>
				<polygon style="opacity:0.4;" points="310.36,189.88 305.58,189.88 307.25,170.79 312.03,170.79 				"/>
				<path style="fill:#F1C111;" d="M315.13,189c-14,0-28.01,0-42.01,0c0.53-6.07,1.06-12.14,1.59-18.21c0.1-1.13-1.66-1.12-1.76,0
					c-0.56,6.37-1.11,12.73-1.67,19.1c-0.04,0.48,0.44,0.88,0.88,0.88c14.32,0,28.64,0,42.97,0C316.27,190.76,316.27,189,315.13,189
					z"/>
				<path style="opacity:0.5;fill:#FFFFFF;" d="M315.13,189c-14,0-28.01,0-42.01,0c0.53-6.07,1.06-12.14,1.59-18.21
					c0.1-1.13-1.66-1.12-1.76,0c-0.56,6.37-1.11,12.73-1.67,19.1c-0.04,0.48,0.44,0.88,0.88,0.88c14.32,0,28.64,0,42.97,0
					C316.27,190.76,316.27,189,315.13,189z"/>
			</g>
			<g>
				<path style="fill:#F1C111;" d="M202.95,184.71l-3.11,2.86c1.8,1.97,4.41,3.19,7.42,3.19l0.35-4.05
					C205.73,186.72,204.08,185.95,202.95,184.71z"/>
				<path style="opacity:0.5;" d="M202.95,184.71l-3.11,2.86c1.8,1.97,4.41,3.19,7.42,3.19l0.35-4.05
					C205.73,186.72,204.08,185.95,202.95,184.71z"/>
				<path style="fill:#F1C111;" d="M215.05,179.88c-0.33,3.78-3.66,6.84-7.44,6.84l-0.35,4.05c6.01,0,11.31-4.87,11.84-10.89H215.05
					z"/>
				<path style="opacity:0.1;" d="M215.05,179.88c-0.33,3.78-3.66,6.84-7.44,6.84l-0.35,4.05c6.01,0,11.31-4.87,11.84-10.89H215.05z
					"/>
				<path style="fill:#F1C111;" d="M202.95,184.71c-1.13-1.24-1.75-2.95-1.58-4.84h-4.05c-0.26,3.01,0.72,5.73,2.51,7.7
					L202.95,184.71z"/>
				<path style="fill:#F1C111;" d="M208.81,173.04c3.78,0,6.57,3.06,6.24,6.84h4.05c0.53-6.01-3.92-10.89-9.93-10.89
					c-6.01,0-11.31,4.87-11.84,10.89h4.05C201.7,176.1,205.03,173.04,208.81,173.04z"/>
				<g>
					<path style="opacity:0.2;fill:#FFFFFF;" d="M208.81,173.04c3.78,0,6.57,3.06,6.24,6.84h4.05c0.53-6.01-3.92-10.89-9.93-10.89
						c-6.01,0-11.31,4.87-11.84,10.89h4.05C201.7,176.1,205.03,173.04,208.81,173.04z"/>
				</g>
				<path style="opacity:0.6;fill:#FFFFFF;" d="M213.47,175.04l3.11-2.86c-1.8-1.97-4.41-3.19-7.42-3.19l-0.35,4.05
					C210.7,173.04,212.34,173.8,213.47,175.04z"/>
			</g>
			<g>
				<path style="fill:#F1C111;" d="M233.27,184.71l-3.11,2.86c1.8,1.97,4.41,3.19,7.42,3.19l0.35-4.05
					C236.05,186.72,234.4,185.95,233.27,184.71z"/>
				<path style="opacity:0.5;" d="M233.27,184.71l-3.11,2.86c1.8,1.97,4.41,3.19,7.42,3.19l0.35-4.05
					C236.05,186.72,234.4,185.95,233.27,184.71z"/>
				<path style="fill:#F1C111;" d="M245.37,179.88c-0.33,3.78-3.66,6.84-7.44,6.84l-0.35,4.05c6.01,0,11.31-4.87,11.84-10.89H245.37
					z"/>
				<path style="opacity:0.1;" d="M245.37,179.88c-0.33,3.78-3.66,6.84-7.44,6.84l-0.35,4.05c6.01,0,11.31-4.87,11.84-10.89H245.37z
					"/>
				<path style="fill:#F1C111;" d="M233.27,184.71c-1.13-1.24-1.75-2.95-1.58-4.84h-4.05c-0.26,3.01,0.72,5.73,2.51,7.7
					L233.27,184.71z"/>
				<path style="fill:#F1C111;" d="M239.13,173.04c3.78,0,6.57,3.06,6.24,6.84h4.05c0.53-6.01-3.92-10.89-9.93-10.89
					c-6.01,0-11.31,4.87-11.84,10.89h4.05C232.02,176.1,235.35,173.04,239.13,173.04z"/>
				<g>
					<path style="opacity:0.2;fill:#FFFFFF;" d="M239.13,173.04c3.78,0,6.57,3.06,6.24,6.84h4.05c0.53-6.01-3.92-10.89-9.93-10.89
						c-6.01,0-11.31,4.87-11.84,10.89h4.05C232.02,176.1,235.35,173.04,239.13,173.04z"/>
				</g>
				<path style="opacity:0.6;fill:#FFFFFF;" d="M243.79,175.04l3.11-2.86c-1.8-1.97-4.41-3.19-7.42-3.19l-0.35,4.05
					C241.02,173.04,242.66,173.8,243.79,175.04z"/>
			</g>
			<g>
				<g>
					<g>
						<path style="fill:#F1C111;" d="M278.83,225.3h-5.7l0.5-5.7h5.7L278.83,225.3z M274.47,224.06h3.22l0.28-3.22h-3.22
							L274.47,224.06z"/>
					</g>
					<g>
						<path style="fill:#F1C111;" d="M278.07,233.98h-5.7l0.5-5.7h5.7L278.07,233.98z M273.71,232.74h3.22l0.28-3.23H274
							L273.71,232.74z"/>
					</g>
					<g>
						<path style="fill:#F1C111;" d="M277.31,242.65h-5.7l0.5-5.7h5.7L277.31,242.65z M272.96,241.42h3.22l0.28-3.22h-3.22
							L272.96,241.42z"/>
					</g>
				</g>
				<g>
					<path style="fill:#F1C111;" d="M282.78,223.97c-0.77,0-1.34-0.62-1.27-1.39c0.07-0.77,0.74-1.39,1.51-1.39h19.07
						c0.77,0,1.34,0.62,1.27,1.39c-0.07,0.77-0.74,1.39-1.51,1.39H282.78z"/>
					<path style="opacity:0.7;fill:#FFFFFF;" d="M282.78,223.97c-0.77,0-1.34-0.62-1.27-1.39c0.07-0.77,0.74-1.39,1.51-1.39h19.07
						c0.77,0,1.34,0.62,1.27,1.39c-0.07,0.77-0.74,1.39-1.51,1.39H282.78z"/>
				</g>
				<g>
					<path style="fill:#F1C111;" d="M281.27,241.2c-0.77,0-1.34-0.62-1.27-1.39c0.07-0.77,0.74-1.39,1.51-1.39h15.98
						c0.77,0,1.34,0.62,1.27,1.39c-0.07,0.77-0.74,1.39-1.51,1.39H281.27z"/>
					<path style="opacity:0.4;fill:#FFFFFF;" d="M281.27,241.2c-0.77,0-1.34-0.62-1.27-1.39c0.07-0.77,0.74-1.39,1.51-1.39h15.98
						c0.77,0,1.34,0.62,1.27,1.39c-0.07,0.77-0.74,1.39-1.51,1.39H281.27z"/>
				</g>
				<g>
					<path style="fill:#F1C111;" d="M282.03,232.52c-0.77,0-1.34-0.62-1.27-1.39s0.74-1.39,1.51-1.39h14.74
						c0.77,0,1.34,0.62,1.27,1.39s-0.74,1.39-1.51,1.39H282.03z"/>
					<path style="opacity:0.2;fill:#FFFFFF;" d="M282.03,232.52c-0.77,0-1.34-0.62-1.27-1.39s0.74-1.39,1.51-1.39h14.74
						c0.77,0,1.34,0.62,1.27,1.39s-0.74,1.39-1.51,1.39H282.03z"/>
				</g>
			</g>
			<g>
				<path style="fill:#F1C111;" d="M263.53,233.56c-1.44-1.96-2.88-3.92-4.31-5.88c-0.32-0.44-0.98-0.64-1.4-0.18
					c-1.52,1.68-3.05,3.36-4.57,5.03c-1.2-1.97-2.4-3.94-3.59-5.91c-0.31-0.51-0.97-0.57-1.4-0.18c-1.58,1.45-3.12,2.95-4.74,4.36
					c-0.48-0.26-0.95-0.56-1.42-0.84c-0.87-0.51-1.74-1.03-2.61-1.54c-0.44-0.26-0.95-0.08-1.22,0.32
					c-1.54,2.23-3.08,4.46-4.62,6.69c-1.15-2.23-2.3-4.46-3.44-6.69c-0.23-0.44-0.81-0.54-1.22-0.32c-0.73,0.4-1.47,0.79-2.2,1.19
					c-0.45,0.24-1.96,1-2.39,1.33c-0.35-0.32-1.66-0.99-1.92-1.14c-0.77-0.46-1.54-0.91-2.31-1.37c-0.99-0.59-1.89,0.95-0.9,1.54
					c1.28,0.76,3.56,2.87,5.07,2.86c1.37,0,3.31-1.45,4.74-2.38c1.23,2.39,2.46,4.78,3.69,7.16c0.33,0.64,1.18,0.52,1.54,0
					c1.66-2.41,3.32-4.82,4.99-7.23c1.29,0.76,2.59,1.53,3.88,2.3c0.35,0.21,0.79,0.13,1.08-0.14c1.47-1.36,2.95-2.71,4.42-4.07
					c1.22,2,2.43,4,3.65,6c0.29,0.47,1.01,0.62,1.4,0.18c1.55-1.7,3.09-3.41,4.64-5.11c1.2,1.64,2.41,3.29,3.61,4.93
					C262.67,235.37,264.21,234.48,263.53,233.56z"/>
				<g>
					<path style="fill:#F1C111;" d="M262.09,240.87c-14.16,0-28.32,0-42.48,0c0.54-6.14,1.07-12.28,1.61-18.42
						c0.1-1.14-1.68-1.14-1.78,0c-0.56,6.44-1.13,12.88-1.69,19.31c-0.04,0.48,0.44,0.89,0.89,0.89c14.48,0,28.97,0,43.45,0
						C263.23,242.65,263.24,240.87,262.09,240.87z"/>
					<path style="opacity:0.5;fill:#FFFFFF;" d="M262.09,240.87c-14.16,0-28.32,0-42.48,0c0.54-6.14,1.07-12.28,1.61-18.42
						c0.1-1.14-1.68-1.14-1.78,0c-0.56,6.44-1.13,12.88-1.69,19.31c-0.04,0.48,0.44,0.89,0.89,0.89c14.48,0,28.97,0,43.45,0
						C263.23,242.65,263.24,240.87,262.09,240.87z"/>
				</g>
			</g>
		</g>
		<g>
			<g>
				<polygon style="fill:#F1C111;" points="308.35,214.69 232.52,214.69 234.21,195.34 310.04,195.34 				"/>
				<polygon style="opacity:0.9;fill:#FFFFFF;" points="308.35,214.69 232.52,214.69 234.21,195.34 310.04,195.34 				"/>
				<path style="fill:#263238;" d="M309.69,216.16h-78.78l1.95-22.29h78.78L309.69,216.16z M234.12,213.22H307l1.43-16.4h-72.88
					L234.12,213.22z"/>
			</g>
			<g>
				<path style="fill:#F1C111;" d="M249.65,207.61l-0.13,1.53h-6.39l0.72-8.26h6.24l-0.13,1.53h-4.34l-0.16,1.79h3.83l-0.13,1.49
					h-3.83l-0.17,1.91H249.65z"/>
				<path style="fill:#F1C111;" d="M256.15,209.15l-1.74-2.87l-2.21,2.87h-2.19l3.42-4.2l-2.55-4.06h2.17l1.66,2.68l2.1-2.68h2.06
					l-3.23,3.99l2.71,4.27H256.15z"/>
				<path style="fill:#F1C111;" d="M261.31,202.45h-2.64l0.14-1.56h7.2l-0.14,1.56h-2.64l-0.59,6.7h-1.91L261.31,202.45z"/>
				<path style="fill:#F1C111;" d="M271.57,209.15l-1.39-2.3h-0.09h-1.66l-0.2,2.3h-1.91l0.72-8.26h3.57c0.73,0,1.36,0.12,1.87,0.37
					c0.52,0.24,0.9,0.59,1.15,1.04c0.25,0.45,0.35,0.98,0.3,1.59c-0.05,0.61-0.25,1.14-0.58,1.59c-0.33,0.44-0.78,0.78-1.35,1.02
					l1.62,2.65H271.57z M271.64,202.82c-0.28-0.25-0.7-0.37-1.28-0.37h-1.56l-0.25,2.88h1.56c0.57,0,1.02-0.13,1.34-0.38
					c0.32-0.25,0.5-0.6,0.54-1.06C272.03,203.42,271.91,203.07,271.64,202.82z"/>
				<path style="fill:#F1C111;" d="M280.57,207.38h-3.83l-0.89,1.77h-1.96l4.4-8.26h1.89l2.97,8.26h-2.01L280.57,207.38z
					 M280.09,205.92l-1.03-3.16l-1.59,3.16H280.09z"/>
				<path style="fill:#F1C111;" d="M285.6,208.74c-0.65-0.37-1.14-0.87-1.47-1.52c-0.33-0.65-0.46-1.38-0.39-2.2
					c0.07-0.82,0.33-1.55,0.78-2.2c0.45-0.65,1.02-1.16,1.74-1.52c0.71-0.37,1.49-0.55,2.34-0.55c0.72,0,1.35,0.13,1.91,0.38
					c0.56,0.25,1.01,0.61,1.36,1.09l-1.33,1.13c-0.5-0.64-1.17-0.97-1.99-0.97c-0.51,0-0.98,0.11-1.4,0.34
					c-0.42,0.22-0.76,0.54-1.02,0.94c-0.26,0.4-0.41,0.86-0.46,1.37c-0.04,0.51,0.03,0.97,0.22,1.37c0.19,0.4,0.47,0.71,0.86,0.94
					c0.38,0.22,0.83,0.34,1.34,0.34c0.83,0,1.55-0.33,2.16-0.98l1.13,1.13c-0.44,0.48-0.95,0.85-1.56,1.1
					c-0.6,0.25-1.26,0.38-1.98,0.38C286.99,209.29,286.25,209.1,285.6,208.74z"/>
				<path style="fill:#F1C111;" d="M294.75,202.45h-2.64l0.14-1.56h7.2l-0.14,1.56h-2.64l-0.59,6.7h-1.91L294.75,202.45z"/>
			</g>
		</g>
	</g>
</g>
<g id="Desk">
	<g>
		<g>
			<rect x="156.76" y="290.33" style="fill:#F1C111;" width="205.63" height="114.97"/>
		</g>
		<g>
			
				<rect x="141.58" y="290.33" transform="matrix(-1 -1.224647e-16 1.224647e-16 -1 302.3352 695.6269)" style="fill:#F1C111;" width="19.18" height="114.97"/>
			
				<rect x="141.58" y="290.33" transform="matrix(-1 -1.224647e-16 1.224647e-16 -1 302.3352 695.6269)" style="opacity:0.3;fill:#FFFFFF;" width="19.18" height="114.97"/>
		</g>
		<g>
			<rect x="137.55" y="290.33" style="fill:#F1C111;" width="210.56" height="10.17"/>
			<rect x="137.55" y="290.33" style="opacity:0.6;fill:#FFFFFF;" width="210.56" height="10.17"/>
		</g>
		<g>
			<rect x="133.53" y="290.33" style="fill:#F1C111;" width="8.05" height="114.97"/>
			<rect x="133.53" y="290.33" style="opacity:0.5;fill:#FFFFFF;" width="8.05" height="114.97"/>
		</g>
		<g>
			
				<rect x="353.73" y="290.33" transform="matrix(-1 -1.224647e-16 1.224647e-16 -1 726.637 695.6269)" style="fill:#F1C111;" width="19.18" height="114.97"/>
			
				<rect x="353.73" y="290.33" transform="matrix(-1 -1.224647e-16 1.224647e-16 -1 726.637 695.6269)" style="opacity:0.3;fill:#FFFFFF;" width="19.18" height="114.97"/>
		</g>
		<g>
			
				<rect x="360.34" y="283.7" transform="matrix(-1 -1.224647e-16 1.224647e-16 -1 738.0831 576.2197)" style="fill:#F1C111;" width="17.39" height="8.83"/>
			
				<rect x="360.34" y="283.7" transform="matrix(-1 -1.224647e-16 1.224647e-16 -1 738.0831 576.2197)" style="opacity:0.3;fill:#FFFFFF;" width="17.39" height="8.83"/>
		</g>
		<g>
			<rect x="253.32" y="305.99" style="fill:#F1C111;" width="86.87" height="99.31"/>
			<rect x="253.32" y="305.99" style="opacity:0.5;fill:#FFFFFF;" width="86.87" height="99.31"/>
		</g>
		<g>
			<rect x="340.19" y="305.99" style="fill:#F1C111;" width="5.49" height="99.31"/>
			<rect x="340.19" y="305.99" style="opacity:0.2;fill:#FFFFFF;" width="5.49" height="99.31"/>
		</g>
		<g>
			<g>
				<rect x="258.81" y="338.61" style="fill:#F1C111;" width="75.89" height="22.97"/>
				<g>
					<rect x="258.81" y="311.4" style="fill:#F1C111;" width="75.89" height="22.97"/>
					<rect x="258.81" y="365.82" style="fill:#F1C111;" width="75.89" height="22.97"/>
				</g>
			</g>
			<g style="opacity:0.7;">
				<rect x="258.81" y="338.61" style="fill:#FFFFFF;" width="75.89" height="22.97"/>
				<g>
					<rect x="258.81" y="311.4" style="fill:#FFFFFF;" width="75.89" height="22.97"/>
					<rect x="258.81" y="365.82" style="fill:#FFFFFF;" width="75.89" height="22.97"/>
				</g>
			</g>
		</g>
		<g>
			<rect x="345.68" y="290.33" style="fill:#F1C111;" width="8.05" height="114.97"/>
			<rect x="156.76" y="290.33" style="opacity:0.1;fill:#FFFFFF;" width="205.63" height="114.97"/>
			<rect x="345.68" y="290.33" style="opacity:0.5;fill:#FFFFFF;" width="8.05" height="114.97"/>
		</g>
		<rect x="126.91" y="283.7" style="fill:#F1C111;" width="233.43" height="8.83"/>
		<rect x="126.91" y="283.7" style="opacity:0.6;fill:#FFFFFF;" width="233.43" height="8.83"/>
		<g>
			<path style="fill:#F1C111;" d="M296.97,320.39c-0.48,0-2.15,0-2.63,0c-1.38,0-2.5,1.12-2.5,2.5c0,1.38,1.12,2.5,2.5,2.5
				c0.49,0,2.15,0,2.63,0c1.38,0,2.5-1.12,2.5-2.5C299.47,321.51,298.35,320.39,296.97,320.39z"/>
			<path style="fill:#F1C111;" d="M296.97,347.6c-0.48,0-2.15,0-2.63,0c-1.38,0-2.5,1.12-2.5,2.5c0,1.38,1.12,2.5,2.5,2.5
				c0.49,0,2.15,0,2.63,0c1.38,0,2.5-1.12,2.5-2.5C299.47,348.72,298.35,347.6,296.97,347.6z"/>
			<path style="fill:#F1C111;" d="M296.97,374.81c-0.48,0-2.15,0-2.63,0c-1.38,0-2.5,1.12-2.5,2.5c0,1.38,1.12,2.5,2.5,2.5
				c0.49,0,2.15,0,2.63,0c1.38,0,2.5-1.12,2.5-2.5C299.47,375.93,298.35,374.81,296.97,374.81z"/>
			<path style="opacity:0.3;fill:#FAFAFA;" d="M296.84,322.89c0,1.38-1.12,2.5-2.5,2.5c-1.38,0-2.5-1.12-2.5-2.5
				c0-1.38,1.12-2.5,2.5-2.5C295.72,320.39,296.84,321.51,296.84,322.89z"/>
			<path style="opacity:0.3;fill:#FAFAFA;" d="M296.84,350.1c0,1.38-1.12,2.5-2.5,2.5c-1.38,0-2.5-1.12-2.5-2.5
				c0-1.38,1.12-2.5,2.5-2.5C295.72,347.6,296.84,348.72,296.84,350.1z"/>
			<path style="opacity:0.3;fill:#FAFAFA;" d="M296.84,377.31c0,1.38-1.12,2.5-2.5,2.5c-1.38,0-2.5-1.12-2.5-2.5
				c0-1.38,1.12-2.5,2.5-2.5C295.72,374.81,296.84,375.93,296.84,377.31z"/>
		</g>
	</g>
</g>
<g id="Character">
	<g>
		<path style="fill:#CE7A63;" d="M209.34,183.11c-1.43,2.02,1.72,8.44,1.72,8.44l-14.19,1.72l2.78-15.47
			C199.65,177.8,211.03,180.73,209.34,183.11z"/>
		<path style="opacity:0.2;" d="M209.12,186.01c-0.22-1.18-0.23-2.26,0.22-2.89c1.05-1.48-2.95-3.17-6.13-4.24
			C203.96,180.38,206.09,184.18,209.12,186.01z"/>
		<g>
			<polygon style="fill:#CE7A63;" points="243.53,394.48 245.04,408.92 238.38,410.17 234.38,396.24 			"/>
			<path style="fill:#263238;" d="M244.9,406.45l-7.83,1.57c-0.3,0.06-0.51,0.31-0.52,0.62l-0.14,6.65
				c-0.02,0.59,0.45,1.08,1.04,1.1c0.08,0,0.15,0,0.23-0.02c2.81-0.61,5.29-1.27,8.81-1.97c4.15-0.83,3.19-0.12,8.08-1.03
				c2.94-0.55,2.81-4,1.54-3.91c-5.84,0.42-6.78-1.18-9.39-2.78C246.15,406.39,245.51,406.31,244.9,406.45z"/>
			<polygon style="opacity:0.2;" points="237.02,405.44 244.57,404.45 243.53,394.48 234.38,396.24 			"/>
		</g>
		<g>
			<polygon style="fill:#CE7A63;" points="185.92,391.56 181.39,409.46 175,408.56 176.7,391.05 			"/>
			<path style="fill:#263238;" d="M182.24,407.21l-7.97-0.56c-0.3-0.02-0.58,0.17-0.66,0.46l-1.9,6.38
				c-0.17,0.56,0.15,1.16,0.71,1.33c0.07,0.02,0.15,0.04,0.22,0.04c2.87,0.15,5.44,0.17,9.01,0.43c4.22,0.3,3.11,0.73,8.07,1.15
				c2.99,0.25,3.77-3.11,2.52-3.36c-5.75-1.14-6.23-2.93-8.32-5.17C183.47,407.48,182.87,407.23,182.24,407.21z"/>
			<path style="opacity:0.2;" d="M175.39,404.49l6.99,1.07l3.34-13.19c-3.06-0.33-8.08-0.83-9.06-0.93L175.39,404.49z"/>
		</g>
		<path style="fill:#263238;" d="M192.84,254.53c0,0-2.2,6.4-2.53,21.97c-0.19,9.31-1.1,24.04-1.8,34.39
			c-0.21,3.03-0.39,5.68-0.54,7.71c-0.19,2.58-0.8,5.11-1.78,7.5c-0.68,1.66-1.54,3.93-2.42,6.77c-1.4,4.51-2.87,10.45-3.83,17.61
			c-2.33,17.45-5.01,51.25-5.01,51.25l8.64,1.12l21.25-78.77l22.65-69.62L192.84,254.53z"/>
		<path style="opacity:0.2;" d="M215.39,292.09l-0.92-6.86l-7.41-6.27l-2.49-1.23c0,0,5.77,14.57,4.32,33.64L215.39,292.09z"/>
		<path style="fill:#263238;" d="M234.27,254.85l10.39,146.3l-8.8,1.5c0,0-11.77-40.49-13.76-62.87c-0.24-2.67-0.34-5.09-0.26-7.14
			c0.12-3.05-0.33-6.09-1.19-9l-1.23-4.18l-6.93-23.46c-1.46-4.92-3.72-9.58-6.86-13.55c-3.6-4.55-8.06-13.36-6.21-28.02l32.55-2.25
			L234.27,254.85z"/>
		<g>
			<g>
				<path style="fill:#CE7A63;" d="M201.73,245.61c0,0,5.05-1.04,6.75-0.88c1.42,0.13,5.41,1.78,5.41,1.78
					c1.69,0.55,2.16,2.72,0.86,3.92c0,0-2.78,3.56-4.16,3.85c-2.77,0.59-10.71-3.66-10.71-3.66L201.73,245.61z"/>
				<polygon style="fill:#263238;" points="201.48,243.19 198.67,252.24 201.37,252.47 203.84,244.56 				"/>
				<polygon style="opacity:0.2;fill:#FFFFFF;" points="201.48,243.19 198.67,252.24 201.37,252.47 203.84,244.56 				"/>
			</g>
			<path style="fill:#F1C111;" d="M184.86,200.07c-1.29-1.76-4.04-1.4-4.97,0.58c-3.15,6.74-11.1,24.61-11.13,33.28
				c-0.04,10.82,31.75,17.22,31.75,17.22l1.92-6.22l-21.88-13.44l6.29-14.83C186.85,216.67,188.41,204.94,184.86,200.07z"/>
			<path style="opacity:0.1;" d="M184.86,200.07c-1.29-1.76-4.04-1.4-4.97,0.58c-3.15,6.74-11.1,24.61-11.13,33.28
				c-0.04,10.82,31.75,17.22,31.75,17.22l1.92-6.22l-21.88-13.44l6.29-14.83C186.85,216.67,188.41,204.94,184.86,200.07z"/>
			<g style="opacity:0.4;">
				<path d="M185.51,201.15l-3.43,0.47l-1.97,1.41l2.35,23.98l4.39-10.33C186.85,216.67,188.21,206.47,185.51,201.15z"/>
				<path d="M192.13,238.61l-9.08-5.58l1.32,13.47c1.9,0.71,3.8,1.35,5.59,1.9L192.13,238.61z"/>
			</g>
		</g>
		<path style="fill:#F1C111;" d="M233.79,254.77c0,0-15.65,5.12-41.29,0.98c0,0,0,0-12.29-51.79c-0.92-3.87,1.03-7.91,4.51-9.83
			c5.28-2.91,15.71-5.66,36.3-4.52c5.08,0.28,9.37,3.88,10.54,8.83L233.79,254.77z"/>
		<g>
			<path style="fill:#263238;" d="M192.68,191.79l1.57-3.67c0,0,6.16-3.11,16.63-1.65l2.49,2.88
				C213.36,189.35,201.65,189.63,192.68,191.79z"/>
		</g>
		<path style="fill:#263238;" d="M216.76,164.9c0.14,0.58-0.05,1.13-0.44,1.22c-0.39,0.09-0.85-0.33-0.98-0.9
			c-0.12-0.57,0.05-1.13,0.45-1.21C216.18,163.92,216.61,164.32,216.76,164.9z"/>
		<path style="fill:#BA4D3C;" d="M216.23,166.66l4,3.91c0,0-1.28,1.44-3.61,1.14L216.23,166.66z"/>
		<path style="fill:#CE7A63;" d="M193.43,167.51c1.53,7.84,2.01,11.19,6.62,14.76c6.78,3.39,16.47,1.9,17.36-6.22
			c0.81-7.3-1.82-18.86-10.16-21.12c-5.94-1.6-12.06,1.79-13.66,7.58C193.14,164.14,193.08,165.85,193.43,167.51z"/>
		<path style="fill:#263238;" d="M213.81,163.06c0.11,0,0.21-0.05,0.27-0.14c0.42-0.67,1.15-1.1,1.95-1.14
			c0.17,0,0.32-0.13,0.32-0.3c0-0.17-0.14-0.32-0.32-0.32c-1.02,0.03-1.95,0.56-2.49,1.41c-0.1,0.14-0.06,0.34,0.09,0.44l0,0
			C213.69,163.04,213.75,163.05,213.81,163.06z"/>
		<path style="opacity:0.4;" d="M233.27,229.25l-1.05-18.97l-6.78-8.98l-3.71-3.44l-2.86,2
			C218.87,199.88,219.26,210.33,233.27,229.25z"/>
		<path style="fill:#F1C111;" d="M235.47,202.29c3.75,6.9,5.21,10.98,6.5,12.69c0.17,0.23,0.45,0.34,0.73,0.3l21.95-3.19
			c0.38-0.05,0.74,0.17,0.85,0.53l1.77,5.44c0.13,0.41-0.09,0.84-0.49,0.98l-20.58,6.97c-3.73,1.45-7.96,0.72-10.96-1.92
			c-5.67-4.99-10.02-10.54-13.99-18.37c-1.58-3.12-5.25-8.9,0.78-13.98C227.03,187.53,232.98,197.71,235.47,202.29z"/>
		<path style="opacity:0.1;fill:#FFFFFF;" d="M235.47,202.29c3.75,6.9,5.21,10.98,6.5,12.69c0.17,0.23,0.45,0.34,0.73,0.3
			l21.95-3.19c0.38-0.05,0.74,0.17,0.85,0.53l1.77,5.44c0.13,0.41-0.09,0.84-0.49,0.98l-20.58,6.97c-3.73,1.45-7.96,0.72-10.96-1.92
			c-5.67-4.99-10.02-10.54-13.99-18.37c-1.58-3.12-5.25-8.9,0.78-13.98C227.03,187.53,232.98,197.71,235.47,202.29z"/>
		<path style="fill:#CE7A63;" d="M265.29,212.62l4.53-5.32c0.49-0.58,1.14-1,1.87-1.21l10.65-3.1c0.36-0.1,0.74,0.06,0.91,0.4l0,0
			c0.21,0.41,0.02,0.9-0.4,1.07l-4.4,1.8c-0.31,0.13-0.51,0.45-0.48,0.79l0.22,2.66c0.13,1.63-0.77,3.17-2.26,3.85l-3.2,1.46
			c-0.12,0.05-0.25,0.1-0.37,0.15l-5.49,1.85c-0.44,0.15-0.91-0.12-1.01-0.56l-0.72-3.15C265.07,213.06,265.13,212.8,265.29,212.62z
			"/>
		<g>
			<path style="fill:#263238;" d="M263.97,212.07l2.71,6.84c0.17,0.42,0.66,0.61,1.07,0.41l0.9-0.44c0.37-0.18,0.53-0.61,0.38-0.99
				l-2.59-6.56c-0.13-0.34-0.48-0.54-0.84-0.49l-1.03,0.16C264.08,211.08,263.79,211.6,263.97,212.07z"/>
		</g>
		<g>
			<polygon style="fill:#F1C111;" points="234.14,400.57 235.5,404.18 245.87,402.58 245.58,398.74 			"/>
			<polygon style="opacity:0.2;" points="234.14,400.57 235.5,404.18 245.87,402.58 245.58,398.74 			"/>
		</g>
		<g>
			<polygon style="fill:#F1C111;" points="174.01,399.11 173.85,402.91 184.25,404.3 185.06,400.53 			"/>
			<polygon style="opacity:0.2;" points="174.01,399.11 173.85,402.91 184.25,404.3 185.06,400.53 			"/>
		</g>
		<path style="fill:#263238;" d="M198.79,182.51c0,0,1.16-1.65,4.66,0.26c0,0,4.97-5.56,5.12-10.77c0,0,3.67-0.68,3.36-3.05
			c-0.31-2.37-2.06-5.47-1.69-7.62c0.37-2.15,3.94-7.79,0.91-10.3c-3.03-2.51-3.39,0.48-5.11,0.8c-1.72,0.32-12.09,0.69-13.41,8.03
			c0,0-5.23,5.45-0.69,12.47C196.48,179.34,198.79,182.51,198.79,182.51z"/>
		<path style="fill:#F1C111;" d="M208.73,167.1l9.07-5.04c0,0,2.28,5.94,1.19,6.24c-1.09,0.3-2.53-4.36-2.53-4.36l-6.46,3.08
			L208.73,167.1z"/>
		<path style="opacity:0.7;fill:#FFFFFF;" d="M216.69,164.09l0.69-0.41c0,0,1.87,4.2,1.36,4.57
			C218.22,168.62,216.69,164.09,216.69,164.09z"/>
		<path style="fill:#CE7A63;" d="M209.97,167.28c1.38,0.92,2.33,2.34,2.64,3.94c0.4,2.13-1.6,3-3.55,2.24
			c-1.77-0.68-4.08-2.61-3.59-4.67C205.96,166.73,208.27,166.17,209.97,167.28z"/>
	</g>
</g>
</svg>
